<svg xmlns="http://www.w3.org/2000/svg" viewBox="0 0 422.5 422.5"><defs><style>.cls-1{fill:#0a0649;stroke:#000;stroke-miterlimit:10;stroke-width:0.5px;}.cls-2{fill:#3faedd;}</style></defs><title>Asset 1</title><g id="Layer_2" data-name="Layer 2"><g id="Layer_1-2" data-name="Layer 1"><circle class="cls-1" cx="211.25" cy="211.25" r="211"/><path class="cls-2" d="M74.73,262.38c11.12,5.84,28.91,11.68,47,11.68,19.46,0,29.74-8.06,29.74-20.3,0-11.67-8.89-18.34-31.41-26.13C88.9,216.51,68.33,199.28,68.33,172c0-32,27-56.15,70.89-56.15,21.41,0,36.7,4.17,47.82,9.45l-9.45,33.91a87.72,87.72,0,0,0-38.92-8.89c-18.35,0-27.25,8.62-27.25,18.07,0,12,10.29,17.23,34.75,26.41,33.08,12.23,48.37,29.47,48.37,55.88,0,31.41-23.9,58.1-75.33,58.1-21.41,0-42.54-5.84-53.1-11.68Z"/><path class="cls-2" d="M211.78,283.23,301,154.8v-1.12H219.84v-35H355.78v24.46L268.49,269.89V271h88.68v35H211.78Z"/></g></g></svg>